STARTFONT 2.1
COMMENT
COMMENT Converted from OpenType font "Q:\font stuff\winfont\Nanosecond Thick BRK.ttf" by "otf2bdf 3.0".
COMMENT
FONT -FreeType-Nanosecond Thick BRK-Medium-R-Normal--44-440-72-72-P-167-ISO10646-1
SIZE 44 72 72
FONTBOUNDINGBOX 32 44 0 -7
STARTPROPERTIES 19
FOUNDRY "FreeType"
FAMILY_NAME "Nanosecond Thick BRK"
WEIGHT_NAME "Medium"
SLANT "R"
SETWIDTH_NAME "Normal"
ADD_STYLE_NAME ""
PIXEL_SIZE 44
POINT_SIZE 440
RESOLUTION_X 72
RESOLUTION_Y 72
SPACING "P"
AVERAGE_WIDTH 167
CHARSET_REGISTRY "ISO10646"
CHARSET_ENCODING "1"
FONT_ASCENT 37
FONT_DESCENT 6
COPYRIGHT "ÆNIGMA FONTS   [e-mail]  kentpw@norwich.net"
_OTF_FONTFILE "Q:\font stuff\winfont\Nanosecond Thick BRK.ttf"
_OTF_PSNAME "NanosecondThickBRK"
ENDPROPERTIES
CHARS 99
STARTCHAR 0020
ENCODING 32
SWIDTH 454 0
DWIDTH 20 0
BBX 0 0 0 0
BITMAP
ENDCHAR
STARTCHAR 0021
ENCODING 33
SWIDTH 159 0
DWIDTH 7 0
BBX 5 31 1 0
BITMAP
70
F8
F8
F8
F8
F8
F8
F8
F8
F8
F8
F8
F8
F8
F8
F8
F8
F8
F8
F8
F8
F8
F8
70
20
00
70
F8
F8
F8
70
ENDCHAR
STARTCHAR 0022
ENCODING 34
SWIDTH 318 0
DWIDTH 14 0
BBX 12 12 1 19
BITMAP
70E0
F9F0
F9F0
F9F0
F9F0
F9F0
F9F0
F9F0
F9F0
F9F0
F1F0
20E0
ENDCHAR
STARTCHAR 0023
ENCODING 35
SWIDTH 500 0
DWIDTH 22 0
BBX 20 31 1 0
BITMAP
070E00
0F9F00
0F9F00
0F9F00
0F9F00
0F9F00
0F9F00
7FFFE0
FFFFF0
FFFFF0
FFFFF0
7FFFE0
0F9F00
0F9F00
0F9F00
0F9F00
0F9F00
0F9F00
0F9F00
0F9F00
7FFFE0
FFFFF0
FFFFF0
FFFFF0
7FFFE0
0F9F00
0F9F00
0F9F00
0F9F00
0F9F00
070E00
ENDCHAR
STARTCHAR 0024
ENCODING 36
SWIDTH 454 0
DWIDTH 20 0
BBX 18 44 1 -7
BITMAP
00E000
01F000
01F000
01F000
01F000
01F000
01F000
07FC00
1FFE00
3FFF00
7FFF80
7E1F80
FC0FC0
F807C0
F807C0
F807C0
F807C0
FC0100
7E0000
7FF000
3FFC00
3FFE00
0FFF00
03FF80
001F80
200FC0
7007C0
F807C0
F807C0
F807C0
FC0FC0
7E1F80
7FFF80
3FFF80
3FFF00
0FFE00
07F800
01F000
01F000
01F000
01F000
01F000
01F000
00E000
ENDCHAR
STARTCHAR 0025
ENCODING 37
SWIDTH 454 0
DWIDTH 20 0
BBX 18 31 1 0
BITMAP
0F0380
3FC7C0
7FE7C0
FFF7C0
FFF7C0
F9FF80
FFFF80
FFFF80
7FFF00
7FFF00
3FFE00
007E00
00FC00
01F800
01F800
03F000
07E000
07E000
0FC000
1F8000
1FFE00
3FFF80
3FFF80
7FFFC0
7FFFC0
7DF7C0
FDFFC0
F9FFC0
F8FF80
F87F00
703E00
ENDCHAR
STARTCHAR 0026
ENCODING 38
SWIDTH 454 0
DWIDTH 20 0
BBX 18 44 1 -7
BITMAP
00E000
01F000
01F000
01F000
01F000
01F000
01F000
07FC00
1FFE00
3FFF00
3FFF80
7E1F80
7C0FC0
F807C0
F807C0
F807C0
F807C0
FC0100
FE0000
7FE000
7FF000
3FF000
3FF000
7FE000
7E0000
FC0000
F80380
F807C0
F807C0
F807C0
FC0FC0
FE1FC0
7FFF80
7FFF80
3FFF00
1FFE00
07F800
01F000
01F000
01F000
01F000
01F000
01F000
00E000
ENDCHAR
STARTCHAR 0027
ENCODING 39
SWIDTH 159 0
DWIDTH 7 0
BBX 5 12 1 19
BITMAP
70
F8
F8
F8
F8
F8
F8
F8
F8
F8
F8
70
ENDCHAR
STARTCHAR 0028
ENCODING 40
SWIDTH 318 0
DWIDTH 14 0
BBX 11 31 1 0
BITMAP
03C0
0FE0
1FE0
3FE0
7FC0
7E00
FC00
F800
F800
F800
F800
F800
F800
F800
F800
F800
F800
F800
F800
F800
F800
F800
F800
F800
FC00
7E00
7FC0
3FE0
1FE0
0FE0
03C0
ENDCHAR
STARTCHAR 0029
ENCODING 41
SWIDTH 318 0
DWIDTH 14 0
BBX 12 31 1 0
BITMAP
3C00
7F00
FF80
7FC0
7FE0
07E0
03F0
01F0
01F0
01F0
01F0
01F0
01F0
01F0
01F0
01F0
01F0
01F0
01F0
01F0
01F0
01F0
01F0
01F0
03F0
07E0
3FE0
7FC0
FF80
7F00
7C00
ENDCHAR
STARTCHAR 002A
ENCODING 42
SWIDTH 454 0
DWIDTH 20 0
BBX 17 17 1 14
BITMAP
01C000
03E000
03E000
03E000
03E000
FFFF80
FFFF80
FFFF80
FFFF80
7FFE00
0FF800
0FF800
1FFC00
3FFE00
3F7E00
3E3E00
1C1C00
ENDCHAR
STARTCHAR 002B
ENCODING 43
SWIDTH 454 0
DWIDTH 20 0
BBX 18 19 1 6
BITMAP
00E000
01F000
01F000
01F000
01F000
01F000
01F000
3FFF80
7FFFC0
FFFFC0
7FFFC0
7FFF80
01F000
01F000
01F000
01F000
01F000
01F000
00E000
ENDCHAR
STARTCHAR 002C
ENCODING 44
SWIDTH 159 0
DWIDTH 7 0
BBX 5 12 1 -7
BITMAP
70
F8
F8
F8
F8
F8
F8
F8
F8
F8
F8
70
ENDCHAR
STARTCHAR 002D
ENCODING 45
SWIDTH 454 0
DWIDTH 20 0
BBX 18 5 1 13
BITMAP
7FFF80
FFFFC0
FFFFC0
FFFFC0
7FFF80
ENDCHAR
STARTCHAR 002E
ENCODING 46
SWIDTH 159 0
DWIDTH 7 0
BBX 5 5 1 0
BITMAP
70
F8
F8
F8
70
ENDCHAR
STARTCHAR 002F
ENCODING 47
SWIDTH 454 0
DWIDTH 20 0
BBX 18 31 1 0
BITMAP
000380
0007C0
0007C0
0007C0
0007C0
000FC0
000F80
001F80
001F00
003F00
007E00
007E00
00FC00
01F800
01F800
03F000
07F000
07E000
0FC000
0FC000
1F8000
3F0000
3F0000
7E0000
7E0000
7C0000
FC0000
F80000
F80000
F80000
700000
ENDCHAR
STARTCHAR 0030
ENCODING 48
SWIDTH 454 0
DWIDTH 20 0
BBX 18 31 1 0
BITMAP
03F000
0FFC00
1FFE00
3FFF00
7FFF80
7E1F80
FC0FC0
F807C0
F807C0
F807C0
F807C0
F807C0
F807C0
F807C0
F807C0
F807C0
F807C0
F807C0
F807C0
F807C0
F807C0
F807C0
F807C0
F807C0
FC0FC0
7E1F80
7FFF80
3FFF00
1FFE00
0FFC00
03F000
ENDCHAR
STARTCHAR 0031
ENCODING 49
SWIDTH 159 0
DWIDTH 7 0
BBX 5 31 1 0
BITMAP
70
F8
F8
F8
F8
F8
F8
F8
F8
F8
F8
F8
F8
F8
F8
F8
F8
F8
F8
F8
F8
F8
F8
F8
F8
F8
F8
F8
F8
F8
70
ENDCHAR
STARTCHAR 0032
ENCODING 50
SWIDTH 454 0
DWIDTH 20 0
BBX 18 31 1 0
BITMAP
03F000
0FFC00
1FFE00
3FFF00
7FFF80
7E1F80
FC0FC0
F807C0
F807C0
F807C0
7007C0
000FC0
001F80
03FF80
0FFF00
1FFE00
3FFC00
7FF000
7E0000
FC0000
F80000
F80000
F80000
F80000
F80000
F80000
FFFF80
FFFFC0
FFFFC0
7FFFC0
3FFF80
ENDCHAR
STARTCHAR 0033
ENCODING 51
SWIDTH 454 0
DWIDTH 20 0
BBX 18 31 1 0
BITMAP
03F000
0FFC00
1FFE00
3FFF00
7FFF80
7E1F80
FC0FC0
F807C0
F807C0
F807C0
7007C0
000FC0
001F80
00FF80
01FF00
03FE00
01FF00
01FF80
001F80
200FC0
7007C0
F807C0
F807C0
F807C0
FC0FC0
7E1F80
7FFF80
3FFF00
1FFE00
0FFC00
03F000
ENDCHAR
STARTCHAR 0034
ENCODING 52
SWIDTH 454 0
DWIDTH 20 0
BBX 18 31 1 0
BITMAP
700380
F807C0
F807C0
F807C0
F807C0
F807C0
F807C0
F807C0
F807C0
F807C0
F807C0
F807C0
F807C0
FFFFC0
FFFFC0
7FFFC0
7FFFC0
3FFFC0
0007C0
0007C0
0007C0
0007C0
0007C0
0007C0
0007C0
0007C0
0007C0
0007C0
0007C0
0007C0
000380
ENDCHAR
STARTCHAR 0035
ENCODING 53
SWIDTH 454 0
DWIDTH 20 0
BBX 18 31 1 0
BITMAP
1FFF80
7FFFC0
FFFFC0
FFFFC0
FFFF80
F80000
F80000
F80000
F80000
F80000
F80000
F80000
F80000
FFF000
FFFC00
7FFE00
7FFF00
3FFF80
001F80
000FC0
0007C0
0007C0
0007C0
0007C0
000FC0
001F80
7FFF80
FFFF00
FFFE00
FFFC00
7FF000
ENDCHAR
STARTCHAR 0036
ENCODING 54
SWIDTH 454 0
DWIDTH 20 0
BBX 18 31 1 0
BITMAP
03F000
0FFC00
1FFE00
3FFF00
7FFF80
7E1F80
FC0FC0
F807C0
F807C0
F807C0
F80380
F80100
F80000
FFF000
FFFC00
7FFE00
FFFF00
FFFF80
F81F80
F80FC0
F807C0
F807C0
F807C0
F807C0
FC0FC0
7E1F80
7FFF80
3FFF00
1FFE00
0FFC00
03F000
ENDCHAR
STARTCHAR 0037
ENCODING 55
SWIDTH 454 0
DWIDTH 20 0
BBX 18 31 1 0
BITMAP
7FFF00
FFFF80
FFFFC0
FFFFC0
7FFFC0
0007C0
0007C0
000FC0
000F80
000F80
000F80
001F00
001F00
001F00
003F00
003E00
003E00
007E00
007C00
007C00
007C00
00FC00
00F800
00F800
01F800
01F000
01F000
01F000
01F000
01E000
00E000
ENDCHAR
STARTCHAR 0038
ENCODING 56
SWIDTH 454 0
DWIDTH 20 0
BBX 18 31 1 0
BITMAP
03F000
0FFC00
1FFE00
3FFF00
7FFF80
7E1F80
FC0FC0
F807C0
F807C0
F807C0
F807C0
FC0FC0
7E1F80
7FFF80
3FFF00
1FFE00
3FFF00
7FFF80
7E1F80
FC0FC0
F807C0
F807C0
F807C0
F807C0
FC0FC0
7E1F80
7FFF80
3FFF00
1FFE00
0FFC00
03F000
ENDCHAR
STARTCHAR 0039
ENCODING 57
SWIDTH 454 0
DWIDTH 20 0
BBX 18 31 1 0
BITMAP
03F000
0FFC00
1FFE00
3FFF00
7FFF80
7E1F80
FC0FC0
F807C0
F807C0
F807C0
F807C0
FC07C0
7E07C0
7FFFC0
3FFFC0
1FFFC0
0FFFC0
03FFC0
0007C0
0007C0
0007C0
0007C0
0007C0
0007C0
0007C0
0007C0
0007C0
0007C0
0007C0
0007C0
000380
ENDCHAR
STARTCHAR 003A
ENCODING 58
SWIDTH 159 0
DWIDTH 7 0
BBX 5 24 1 0
BITMAP
70
F8
F8
F8
70
00
00
00
00
00
00
00
00
00
00
00
00
00
00
70
F8
F8
F8
70
ENDCHAR
STARTCHAR 003B
ENCODING 59
SWIDTH 159 0
DWIDTH 7 0
BBX 5 31 1 -7
BITMAP
70
F8
F8
F8
70
00
00
00
00
00
00
00
00
00
00
00
00
00
00
20
F8
F8
F8
F8
F8
F8
F8
F8
F8
F8
70
ENDCHAR
STARTCHAR 003C
ENCODING 60
SWIDTH 454 0
DWIDTH 20 0
BBX 18 18 1 6
BITMAP
000F80
003FC0
00FFC0
03FFC0
07FF80
0FF800
3FE000
7F8000
FF0000
FF0000
7F8000
3FE000
0FF800
07FF80
03FFC0
00FFC0
007FC0
000F80
ENDCHAR
STARTCHAR 003D
ENCODING 61
SWIDTH 454 0
DWIDTH 20 0
BBX 18 13 1 9
BITMAP
7FFF80
FFFFC0
FFFFC0
FFFFC0
7FFF80
000000
000000
000000
7FFF80
FFFFC0
FFFFC0
FFFFC0
7FFF80
ENDCHAR
STARTCHAR 003E
ENCODING 62
SWIDTH 454 0
DWIDTH 20 0
BBX 18 18 1 6
BITMAP
7C0000
FF8000
FFE000
FFF000
7FF800
07FE00
01FF00
007FC0
003FC0
003FC0
007FC0
01FF00
07FE00
7FF800
FFF000
FFE000
FF8000
7C0000
ENDCHAR
STARTCHAR 003F
ENCODING 63
SWIDTH 454 0
DWIDTH 20 0
BBX 17 31 2 0
BITMAP
07F000
1FFC00
3FFE00
7FFF00
7FFF00
FC1F80
F80F80
F80F80
F80F80
F80F80
F00F80
000F80
001F80
00FF00
01FF00
03FE00
03FC00
03F000
03E000
03E000
03E000
03E000
03E000
01C000
000000
000000
01C000
03E000
03E000
03E000
01C000
ENDCHAR
STARTCHAR 0040
ENCODING 64
SWIDTH 750 0
DWIDTH 33 0
BBX 31 31 1 0
BITMAP
03FFFF80
0FFFFFE0
1FFFFFF0
3FFFFFF8
7FFFFFFC
7E0000FC
FC00007E
F803F03E
F807FC3E
F807FE3E
F807FF3E
F803FF3E
F8001F3E
F87FFFBE
F8FFFFBE
F9FFFF3E
F9FFFF3E
F9FFFFBE
F9F00FBE
F9F00FBE
F9FFFFFE
F9FFFFFE
F8FFFFFC
F87FFFFC
FC1FFFF0
7E000000
7FFFFE00
3FFFFF00
1FFFFF80
0FFFFF00
03FFFE00
ENDCHAR
STARTCHAR 0041
ENCODING 65
SWIDTH 454 0
DWIDTH 20 0
BBX 18 31 1 0
BITMAP
03F000
0FFC00
1FFE00
3FFF00
7FFF80
7E1F80
FC0FC0
F807C0
F807C0
F807C0
F807C0
F807C0
F807C0
FFFFC0
FFFFC0
7FFFC0
FFFFC0
FFFFC0
F807C0
F807C0
F807C0
F807C0
F807C0
F807C0
F807C0
F807C0
F807C0
F807C0
F807C0
F807C0
700380
ENDCHAR
STARTCHAR 0042
ENCODING 66
SWIDTH 454 0
DWIDTH 20 0
BBX 18 31 1 0
BITMAP
1FF000
7FFC00
7FFE00
FFFF00
FFFF80
F81F80
F80FC0
F807C0
F807C0
F807C0
F807C0
F80FC0
F81F80
FFFF80
FFFF00
7FFE00
FFFF00
FFFF80
F81F80
F80FC0
F807C0
F807C0
F807C0
F807C0
F80FC0
F81F80
FFFF80
FFFF00
FFFE00
7FFC00
1FF000
ENDCHAR
STARTCHAR 0043
ENCODING 67
SWIDTH 454 0
DWIDTH 20 0
BBX 18 31 1 0
BITMAP
03F000
0FFC00
1FFE00
3FFF00
7FFF80
7E1F80
FC0FC0
F807C0
F807C0
F807C0
F80380
F80100
F80000
F80000
F80000
F80000
F80000
F80000
F80000
F80100
F80780
F807C0
F807C0
F807C0
FC0FC0
7E1F80
7FFF80
3FFF00
1FFE00
0FFC00
03F000
ENDCHAR
STARTCHAR 0044
ENCODING 68
SWIDTH 454 0
DWIDTH 20 0
BBX 18 31 1 0
BITMAP
1FF000
7FFC00
7FFE00
FFFF00
FFFF80
F81F80
F80FC0
F807C0
F807C0
F807C0
F807C0
F807C0
F807C0
F807C0
F807C0
F807C0
F807C0
F807C0
F807C0
F807C0
F807C0
F807C0
F807C0
F807C0
F80FC0
F81F80
FFFF80
FFFF00
FFFE00
7FFC00
1FF000
ENDCHAR
STARTCHAR 0045
ENCODING 69
SWIDTH 454 0
DWIDTH 20 0
BBX 18 31 1 0
BITMAP
1FFF80
7FFFC0
FFFFC0
FFFFC0
FFFF80
F80000
F80000
F80000
F80000
F80000
F80000
F80000
F80000
FFE000
FFE000
7FF000
FFE000
FFC000
F80000
F80000
F80000
F80000
F80000
F80000
F80000
F80000
FFFF80
FFFFC0
FFFFC0
7FFFC0
3FFF80
ENDCHAR
STARTCHAR 0046
ENCODING 70
SWIDTH 454 0
DWIDTH 20 0
BBX 18 31 1 0
BITMAP
1FFF80
7FFFC0
FFFFC0
FFFFC0
FFFF80
F80000
F80000
F80000
F80000
F80000
F80000
F80000
F80000
FFE000
FFE000
7FF000
FFE000
FFC000
F80000
F80000
F80000
F80000
F80000
F80000
F80000
F80000
F80000
F80000
F80000
F80000
700000
ENDCHAR
STARTCHAR 0047
ENCODING 71
SWIDTH 454 0
DWIDTH 20 0
BBX 18 31 1 0
BITMAP
03F000
0FFC00
1FFE00
3FFF00
7FFF80
7E1F80
FC0FC0
F807C0
F807C0
F807C0
F80380
F80100
F80000
F8FF00
F9FF80
FBFFC0
F9FFC0
F9FFC0
F807C0
F807C0
F807C0
F807C0
F807C0
F807C0
FC07C0
7E07C0
7FFFC0
3FFFC0
1FFFC0
0FFF80
03FE00
ENDCHAR
STARTCHAR 0048
ENCODING 72
SWIDTH 454 0
DWIDTH 20 0
BBX 18 31 1 0
BITMAP
700380
F807C0
F807C0
F807C0
F807C0
F807C0
F807C0
F807C0
F807C0
F807C0
F807C0
F807C0
F807C0
FFFFC0
FFFFC0
7FFFC0
FFFFC0
FFFFC0
F807C0
F807C0
F807C0
F807C0
F807C0
F807C0
F807C0
F807C0
F807C0
F807C0
F807C0
F807C0
700380
ENDCHAR
STARTCHAR 0049
ENCODING 73
SWIDTH 454 0
DWIDTH 20 0
BBX 18 31 1 0
BITMAP
3FFF80
7FFFC0
FFFFC0
7FFFC0
7FFF80
01F000
01F000
01F000
01F000
01F000
01F000
01F000
01F000
01F000
01F000
01F000
01F000
01F000
01F000
01F000
01F000
01F000
01F000
01F000
01F000
01F000
3FFF80
7FFFC0
FFFFC0
7FFFC0
7FFF80
ENDCHAR
STARTCHAR 004A
ENCODING 74
SWIDTH 454 0
DWIDTH 20 0
BBX 18 31 1 0
BITMAP
000380
0007C0
0007C0
0007C0
0007C0
0007C0
0007C0
0007C0
0007C0
0007C0
0007C0
0007C0
0007C0
0007C0
0007C0
0007C0
0007C0
0007C0
0007C0
2007C0
7807C0
F807C0
F807C0
F807C0
FC0FC0
7E1F80
7FFF80
3FFF00
1FFE00
0FFC00
03F000
ENDCHAR
STARTCHAR 004B
ENCODING 75
SWIDTH 454 0
DWIDTH 20 0
BBX 18 31 1 0
BITMAP
700380
F807C0
F807C0
F807C0
F807C0
F807C0
F807C0
F807C0
F807C0
F807C0
F807C0
F80FC0
F81F80
FFFF80
FFFF00
7FFE00
FFFF00
FFFF80
F81F80
F80FC0
F807C0
F807C0
F807C0
F807C0
F807C0
F807C0
F807C0
F807C0
F807C0
F807C0
700380
ENDCHAR
STARTCHAR 004C
ENCODING 76
SWIDTH 454 0
DWIDTH 20 0
BBX 18 31 1 0
BITMAP
700000
F80000
F80000
F80000
F80000
F80000
F80000
F80000
F80000
F80000
F80000
F80000
F80000
F80000
F80000
F80000
F80000
F80000
F80000
F80000
F80000
F80000
F80000
F80000
F80000
F80000
FFFF80
FFFFC0
FFFFC0
7FFFC0
3FFF80
ENDCHAR
STARTCHAR 004D
ENCODING 77
SWIDTH 659 0
DWIDTH 29 0
BBX 27 31 1 0
BITMAP
03FFF800
0FFFFE00
1FFFFF00
3FFFFF80
7FFFFFC0
7E1F0FC0
FC1F07E0
F81F03E0
F81F03E0
F81F03E0
F81F03E0
F81F03E0
F81F03E0
F81F03E0
F81F03E0
F81F03E0
F81F03E0
F81F03E0
F81F03E0
F81F03E0
F81F03E0
F81F03E0
F81F03E0
F81F03E0
F81F03E0
F81F03E0
F81F03E0
F81F03E0
F81F03E0
F81F03E0
700E01C0
ENDCHAR
STARTCHAR 004E
ENCODING 78
SWIDTH 454 0
DWIDTH 20 0
BBX 18 31 1 0
BITMAP
03F000
0FFC00
1FFE00
3FFF00
7FFF80
7E1F80
FC0FC0
F807C0
F807C0
F807C0
F807C0
F807C0
F807C0
F807C0
F807C0
F807C0
F807C0
F807C0
F807C0
F807C0
F807C0
F807C0
F807C0
F807C0
F807C0
F807C0
F807C0
F807C0
F807C0
F807C0
700380
ENDCHAR
STARTCHAR 004F
ENCODING 79
SWIDTH 454 0
DWIDTH 20 0
BBX 18 31 1 0
BITMAP
03F000
0FFC00
1FFE00
3FFF00
7FFF80
7E1F80
FC0FC0
F807C0
F807C0
F807C0
F807C0
F807C0
F807C0
F807C0
F807C0
F807C0
F807C0
F807C0
F807C0
F807C0
F807C0
F807C0
F807C0
F807C0
FC0FC0
7E1F80
7FFF80
3FFF00
1FFE00
0FFC00
03F000
ENDCHAR
STARTCHAR 0050
ENCODING 80
SWIDTH 454 0
DWIDTH 20 0
BBX 18 31 1 0
BITMAP
1FF000
7FFC00
FFFE00
FFFF00
FFFF80
F81F80
F80FC0
F807C0
F807C0
F807C0
F807C0
F80FC0
F81F80
FFFF80
FFFF00
7FFE00
FFFC00
FFF000
F80000
F80000
F80000
F80000
F80000
F80000
F80000
F80000
F80000
F80000
F80000
F80000
700000
ENDCHAR
STARTCHAR 0051
ENCODING 81
SWIDTH 454 0
DWIDTH 20 0
BBX 18 31 1 0
BITMAP
03F000
0FFC00
1FFE00
3FFF00
7FFF80
7E1F80
FC0FC0
F807C0
F807C0
F807C0
F807C0
F807C0
F807C0
F807C0
F807C0
F807C0
F807C0
F807C0
F807C0
F847C0
F9F7C0
F9F7C0
F9F7C0
F9F7C0
FDFFC0
7FFF80
7FFF80
3FFF00
3FFF00
1FFE00
07F800
ENDCHAR
STARTCHAR 0052
ENCODING 82
SWIDTH 454 0
DWIDTH 20 0
BBX 18 31 1 0
BITMAP
1FF000
7FFC00
7FFE00
FFFF00
FFFF80
F81F80
F80FC0
F807C0
F807C0
F807C0
F807C0
F80FC0
F81F80
FFFF80
FFFF00
7FFE00
FFFF00
FFFF80
F81F80
F80FC0
F807C0
F807C0
F807C0
F807C0
F807C0
F807C0
F807C0
F807C0
F807C0
F807C0
700380
ENDCHAR
STARTCHAR 0053
ENCODING 83
SWIDTH 454 0
DWIDTH 20 0
BBX 18 31 1 0
BITMAP
03F000
0FFC00
1FFE00
3FFF00
7FFF80
7E1F80
FC0FC0
F807C0
F807C0
F807C0
F80380
FC0100
7E0000
7FF000
3FFC00
1FFE00
0FFF00
03FF80
001F80
200FC0
7007C0
F807C0
F807C0
F807C0
FC0FC0
7E1F80
7FFF80
3FFF00
1FFE00
0FFC00
03F000
ENDCHAR
STARTCHAR 0054
ENCODING 84
SWIDTH 454 0
DWIDTH 20 0
BBX 18 31 1 0
BITMAP
3FFF80
7FFFC0
FFFFC0
7FFFC0
7FFF80
01F000
01F000
01F000
01F000
01F000
01F000
01F000
01F000
01F000
01F000
01F000
01F000
01F000
01F000
01F000
01F000
01F000
01F000
01F000
01F000
01F000
01F000
01F000
01F000
01F000
00E000
ENDCHAR
STARTCHAR 0055
ENCODING 85
SWIDTH 454 0
DWIDTH 20 0
BBX 18 31 1 0
BITMAP
700380
F807C0
F807C0
F807C0
F807C0
F807C0
F807C0
F807C0
F807C0
F807C0
F807C0
F807C0
F807C0
F807C0
F807C0
F807C0
F807C0
F807C0
F807C0
F807C0
F807C0
F807C0
F807C0
F807C0
FC0FC0
7E1F80
7FFF80
3FFF00
1FFE00
0FFC00
03F000
ENDCHAR
STARTCHAR 0056
ENCODING 86
SWIDTH 454 0
DWIDTH 20 0
BBX 18 31 1 0
BITMAP
700380
F807C0
F807C0
F807C0
F807C0
F807C0
F807C0
F807C0
F807C0
F807C0
F807C0
F807C0
F807C0
F807C0
F807C0
F807C0
F807C0
F807C0
F807C0
F807C0
7C0F80
7C0F80
7E1F80
7F3F00
3FFF00
1FFE00
1FFC00
0FF800
03F000
01E000
01E000
ENDCHAR
STARTCHAR 0057
ENCODING 87
SWIDTH 659 0
DWIDTH 29 0
BBX 27 31 1 0
BITMAP
700E01C0
F81F03E0
F81F03E0
F81F03E0
F81F03E0
F81F03E0
F81F03E0
F81F03E0
F81F03E0
F81F03E0
F81F03E0
F81F03E0
F81F03E0
F81F03E0
F81F03E0
F81F03E0
F81F03E0
F81F03E0
F81F03E0
F81F03E0
F81F03E0
F81F03E0
F81F03E0
F81F03E0
FC1F07E0
7E1F0FC0
7FFFFFC0
3FFFFF80
1FFFFF00
0FFFFE00
03FFF800
ENDCHAR
STARTCHAR 0058
ENCODING 88
SWIDTH 454 0
DWIDTH 20 0
BBX 18 31 1 0
BITMAP
700380
F807C0
F807C0
F807C0
F807C0
F807C0
F807C0
F807C0
F807C0
F807C0
F807C0
FC0FC0
7E1F80
7FFF80
3FFF00
1FFE00
3FFF00
7FFF80
7E1F80
FC0FC0
F807C0
F807C0
F807C0
F807C0
F807C0
F807C0
F807C0
F807C0
F807C0
F807C0
700380
ENDCHAR
STARTCHAR 0059
ENCODING 89
SWIDTH 454 0
DWIDTH 20 0
BBX 18 31 1 0
BITMAP
700380
F807C0
F807C0
F807C0
F807C0
F807C0
F807C0
F807C0
F807C0
F807C0
F807C0
FC0FC0
7E1F80
7FFF80
3FFF00
1FFF00
0FFE00
03F800
01F000
01F000
01F000
01F000
01F000
01F000
01F000
01F000
01F000
01F000
01F000
01F000
00E000
ENDCHAR
STARTCHAR 005A
ENCODING 90
SWIDTH 454 0
DWIDTH 20 0
BBX 18 31 1 0
BITMAP
7FFF00
FFFF80
FFFFC0
FFFFC0
7FFFC0
0007C0
000FC0
001F80
001F80
003F00
007E00
007E00
00FC00
01F800
01F800
03F000
07F000
07E000
0FC000
1FC000
1F8000
3F0000
3F0000
7E0000
7C0000
FC0000
FFFF80
FFFFC0
7FFFC0
7FFFC0
1FFF80
ENDCHAR
STARTCHAR 005B
ENCODING 91
SWIDTH 318 0
DWIDTH 14 0
BBX 11 31 1 0
BITMAP
1FC0
7FE0
FFE0
FFE0
FFC0
F800
F800
F800
F800
F800
F800
F800
F800
F800
F800
F800
F800
F800
F800
F800
F800
F800
F800
F800
F800
F800
FFC0
FFE0
FFE0
7FE0
3FC0
ENDCHAR
STARTCHAR 005C
ENCODING 92
SWIDTH 454 0
DWIDTH 20 0
BBX 18 31 1 0
BITMAP
700000
F80000
F80000
F80000
F80000
7C0000
7C0000
7E0000
3E0000
3F0000
1F8000
1F8000
0FC000
07E000
07E000
03F000
01F800
01F800
00FC00
007E00
007E00
003F00
003F00
001F80
000F80
000F80
0007C0
0007C0
0007C0
0007C0
000380
ENDCHAR
STARTCHAR 005D
ENCODING 93
SWIDTH 318 0
DWIDTH 14 0
BBX 12 31 1 0
BITMAP
3F80
7FE0
FFF0
7FF0
7FF0
01F0
01F0
01F0
01F0
01F0
01F0
01F0
01F0
01F0
01F0
01F0
01F0
01F0
01F0
01F0
01F0
01F0
01F0
01F0
01F0
01F0
3FF0
7FF0
FFF0
7FE0
7F80
ENDCHAR
STARTCHAR 005E
ENCODING 94
SWIDTH 454 0
DWIDTH 20 0
BBX 18 12 1 19
BITMAP
00E000
01E000
07F800
0FFE00
3FFF00
7FFF80
7FFFC0
FE1FC0
FC07C0
F807C0
F807C0
700380
ENDCHAR
STARTCHAR 005F
ENCODING 95
SWIDTH 454 0
DWIDTH 20 0
BBX 18 5 1 -7
BITMAP
7FFF80
FFFFC0
FFFFC0
FFFFC0
7FFF80
ENDCHAR
STARTCHAR 0060
ENCODING 96
SWIDTH 159 0
DWIDTH 7 0
BBX 5 12 1 19
BITMAP
70
F8
F8
F8
F8
F8
F8
F8
F8
F8
F8
70
ENDCHAR
STARTCHAR 0061
ENCODING 97
SWIDTH 454 0
DWIDTH 20 0
BBX 18 18 1 0
BITMAP
00FC00
01FF00
01FF80
01FF80
00FFC0
0007C0
0007C0
1FFFC0
7FFFC0
7FFFC0
FFFFC0
FFFFC0
F807C0
FFFFC0
7FFFC0
7FFFC0
3FFF80
0FFF00
ENDCHAR
STARTCHAR 0062
ENCODING 98
SWIDTH 454 0
DWIDTH 20 0
BBX 18 31 1 0
BITMAP
700000
F80000
F80000
F80000
F80000
F80000
F80000
F80000
F80000
F80000
F80000
F80000
F80000
FFF000
FFFC00
7FFE00
FFFF00
FFFF80
F81F80
F80FC0
F807C0
F807C0
F807C0
F807C0
F80FC0
F81F80
FFFF80
FFFF00
FFFE00
7FFC00
1FF000
ENDCHAR
STARTCHAR 0063
ENCODING 99
SWIDTH 454 0
DWIDTH 20 0
BBX 18 18 1 0
BITMAP
03FF80
0FFFC0
1FFFC0
3FFFC0
7FFF80
7E0000
FC0000
F80000
F80000
F80000
F80000
FC0000
7E0000
7FFF80
3FFFC0
3FFFC0
0FFFC0
03FF80
ENDCHAR
STARTCHAR 0064
ENCODING 100
SWIDTH 454 0
DWIDTH 20 0
BBX 18 31 1 0
BITMAP
000380
0007C0
0007C0
0007C0
0007C0
0007C0
0007C0
0007C0
0007C0
0007C0
0007C0
0007C0
0007C0
03FFC0
0FFFC0
1FFFC0
3FFFC0
7FFFC0
7E07C0
FC07C0
F807C0
F807C0
F807C0
F807C0
FC07C0
7E07C0
7FFFC0
3FFFC0
1FFFC0
0FFF80
03FE00
ENDCHAR
STARTCHAR 0065
ENCODING 101
SWIDTH 454 0
DWIDTH 20 0
BBX 18 18 1 0
BITMAP
0FFC00
1FFF00
3FFF80
7FFF80
FFFFC0
FC07C0
F807C0
FFFFC0
FFFFC0
FFFFC0
FFFF80
FFFF00
F80000
FFE000
7FE000
3FF000
3FE000
0FE000
ENDCHAR
STARTCHAR 0066
ENCODING 102
SWIDTH 454 0
DWIDTH 20 0
BBX 18 31 1 0
BITMAP
03FF80
0FFFC0
1FFFC0
3FFFC0
7FFF80
7E0000
FC0000
F80000
F80000
F80000
F80000
F80000
F80000
FFE000
FFE000
7FF000
FFE000
FFC000
F80000
F80000
F80000
F80000
F80000
F80000
F80000
F80000
F80000
F80000
F80000
F80000
700000
ENDCHAR
STARTCHAR 0067
ENCODING 103
SWIDTH 454 0
DWIDTH 20 0
BBX 18 25 1 -7
BITMAP
03FE00
0FFF80
1FFF80
3FFFC0
7FFFC0
7E07C0
FC07C0
F807C0
F807C0
F807C0
F807C0
FC07C0
7E07C0
7FFFC0
3FFFC0
1FFFC0
0FFFC0
03FFC0
0007C0
000FC0
00FFC0
01FF80
01FF80
01FF00
00FC00
ENDCHAR
STARTCHAR 0068
ENCODING 104
SWIDTH 454 0
DWIDTH 20 0
BBX 18 31 1 0
BITMAP
700000
F80000
F80000
F80000
F80000
F80000
F80000
F80000
F80000
F80000
F80000
F80000
F80000
FFF000
FFFC00
7FFE00
FFFF00
FFFF80
F81F80
F80FC0
F807C0
F807C0
F807C0
F807C0
F807C0
F807C0
F807C0
F807C0
F807C0
F807C0
700380
ENDCHAR
STARTCHAR 0069
ENCODING 105
SWIDTH 159 0
DWIDTH 7 0
BBX 5 24 1 0
BITMAP
70
F8
F8
F8
70
00
70
F8
F8
F8
F8
F8
F8
F8
F8
F8
F8
F8
F8
F8
F8
F8
F8
70
ENDCHAR
STARTCHAR 006A
ENCODING 106
SWIDTH 318 0
DWIDTH 14 0
BBX 12 31 1 -7
BITMAP
00E0
01F0
01F0
01F0
00E0
0000
00E0
01F0
01F0
01F0
01F0
01F0
01F0
01F0
01F0
01F0
01F0
01F0
01F0
01F0
01F0
01F0
01F0
01F0
03F0
07E0
7FE0
7FC0
FF80
7F00
3C00
ENDCHAR
STARTCHAR 006B
ENCODING 107
SWIDTH 454 0
DWIDTH 20 0
BBX 18 31 1 0
BITMAP
700000
F80000
F80000
F80000
F80000
F80000
F80100
F80780
F807C0
F807C0
F807C0
F80FC0
F81F80
FFFF80
FFFF00
7FFE00
FFFF00
FFFF80
F81F80
F80FC0
F807C0
F807C0
F807C0
F807C0
F807C0
F807C0
F807C0
F807C0
F807C0
F807C0
700380
ENDCHAR
STARTCHAR 006C
ENCODING 108
SWIDTH 159 0
DWIDTH 7 0
BBX 5 31 1 0
BITMAP
70
F8
F8
F8
F8
F8
F8
F8
F8
F8
F8
F8
F8
F8
F8
F8
F8
F8
F8
F8
F8
F8
F8
F8
F8
F8
F8
F8
F8
F8
70
ENDCHAR
STARTCHAR 006D
ENCODING 109
SWIDTH 659 0
DWIDTH 29 0
BBX 27 18 1 0
BITMAP
03FFF800
0FFFFE00
1FFFFF00
3FFFFF80
7FFFFFC0
7E1F0FC0
FC1F07E0
F81F03E0
F81F03E0
F81F03E0
F81F03E0
F81F03E0
F81F03E0
F81F03E0
F81F03E0
F81F03E0
F81F03E0
700E01C0
ENDCHAR
STARTCHAR 006E
ENCODING 110
SWIDTH 454 0
DWIDTH 20 0
BBX 18 18 1 0
BITMAP
03F000
0FFC00
1FFE00
3FFF00
7FFF80
7E1F80
FC0FC0
F807C0
F807C0
F807C0
F807C0
F807C0
F807C0
F807C0
F807C0
F807C0
F807C0
700380
ENDCHAR
STARTCHAR 006F
ENCODING 111
SWIDTH 454 0
DWIDTH 20 0
BBX 18 18 1 0
BITMAP
03F000
0FFC00
1FFF00
3FFF00
7FFF80
7E1F80
FC0FC0
F807C0
F807C0
F807C0
F807C0
FC0FC0
7E1FC0
7FFF80
3FFF00
1FFF00
0FFC00
03F000
ENDCHAR
STARTCHAR 0070
ENCODING 112
SWIDTH 454 0
DWIDTH 20 0
BBX 18 25 1 -7
BITMAP
1FF000
7FFC00
7FFE00
FFFF00
FFFF80
F81F80
F80FC0
F807C0
F807C0
F807C0
F807C0
F80FC0
F81F80
FFFF80
FFFF00
FFFE00
FFFC00
FFF000
F80000
F80000
F80000
F80000
F80000
F80000
700000
ENDCHAR
STARTCHAR 0071
ENCODING 113
SWIDTH 454 0
DWIDTH 20 0
BBX 18 25 1 -7
BITMAP
03FE00
0FFF80
1FFF80
3FFFC0
7FFFC0
7E07C0
FC07C0
F807C0
F807C0
F807C0
F807C0
FC07C0
7E07C0
7FFFC0
3FFFC0
1FFFC0
0FFFC0
03FFC0
0007C0
0007C0
0007C0
0007C0
0007C0
0007C0
000380
ENDCHAR
STARTCHAR 0072
ENCODING 114
SWIDTH 454 0
DWIDTH 20 0
BBX 18 18 1 0
BITMAP
03FF80
0FFFC0
1FFFC0
3FFFC0
7FFF80
7E0000
FC0000
F80000
F80000
F80000
F80000
F80000
F80000
F80000
F80000
F80000
F80000
700000
ENDCHAR
STARTCHAR 0073
ENCODING 115
SWIDTH 454 0
DWIDTH 20 0
BBX 18 18 1 0
BITMAP
0FFF80
1FFFC0
3FFFC0
7FFFC0
FFFF80
FC0000
F80000
FFFF00
FFFF80
7FFFC0
7FFFC0
1FFFC0
0007C0
7FFFC0
FFFF80
FFFF80
FFFF00
7FFC00
ENDCHAR
STARTCHAR 0074
ENCODING 116
SWIDTH 454 0
DWIDTH 20 0
BBX 18 25 1 0
BITMAP
00E000
01F000
01F000
01F000
01F000
01F000
01F000
3FFF80
7FFFC0
FFFFC0
7FFFC0
7FFF80
01F000
01F000
01F000
01F000
01F000
01F000
01F000
01F000
01F000
01F000
01F000
01F000
00E000
ENDCHAR
STARTCHAR 0075
ENCODING 117
SWIDTH 454 0
DWIDTH 20 0
BBX 18 18 1 0
BITMAP
700380
F807C0
F807C0
F807C0
F807C0
F807C0
F807C0
F807C0
F807C0
F807C0
F807C0
FC0FC0
7E1F80
7FFF80
3FFF00
1FFE00
0FFC00
03F000
ENDCHAR
STARTCHAR 0076
ENCODING 118
SWIDTH 454 0
DWIDTH 20 0
BBX 18 18 1 0
BITMAP
700380
F807C0
F807C0
F807C0
F807C0
F807C0
F807C0
FC0F80
7C0F80
7E1F80
7F3F00
3FFF00
1FFE00
1FFC00
0FF800
03F000
01E000
01E000
ENDCHAR
STARTCHAR 0077
ENCODING 119
SWIDTH 659 0
DWIDTH 29 0
BBX 27 18 1 0
BITMAP
700E01C0
F81F03E0
F81F03E0
F81F03E0
F81F03E0
F81F03E0
F81F03E0
F81F03E0
F81F03E0
F81F03E0
F81F03E0
FC1F07E0
7E1F0FC0
7FFFFFC0
3FFFFF80
1FFFFF00
0FFFFE00
03FFF800
ENDCHAR
STARTCHAR 0078
ENCODING 120
SWIDTH 454 0
DWIDTH 20 0
BBX 18 18 1 0
BITMAP
700380
F807C0
F807C0
F807C0
F807C0
FC0FC0
7E1F80
7FFF80
3FFF00
3FFF00
7FFF80
7FFF80
7E1F80
FC0FC0
F807C0
F807C0
F807C0
700380
ENDCHAR
STARTCHAR 0079
ENCODING 121
SWIDTH 454 0
DWIDTH 20 0
BBX 18 25 1 -7
BITMAP
700380
F807C0
F807C0
F807C0
F807C0
F807C0
F807C0
F807C0
F807C0
F807C0
F807C0
FC07C0
7E07C0
7FFFC0
3FFFC0
1FFFC0
0FFFC0
03FFC0
0007C0
000FC0
00FFC0
01FF80
01FF80
01FF00
00FC00
ENDCHAR
STARTCHAR 007A
ENCODING 122
SWIDTH 454 0
DWIDTH 20 0
BBX 18 18 1 0
BITMAP
7FFF00
FFFF80
FFFFC0
FFFFC0
7FFFC0
003FC0
00FF80
01FF00
07FE00
1FFC00
3FF000
7FC000
FF0000
FFFF80
FFFFC0
7FFFC0
7FFFC0
1FFF80
ENDCHAR
STARTCHAR 007B
ENCODING 123
SWIDTH 363 0
DWIDTH 16 0
BBX 13 31 1 0
BITMAP
00F0
03F8
07F8
0FF8
1FF0
1F80
3F00
3E00
3E00
3E00
3E00
3E00
3E00
7E00
FE00
FC00
FE00
7E00
3E00
3E00
3E00
3E00
3E00
3E00
3F00
1F80
1FF0
0FF8
0FF8
03F8
00F0
ENDCHAR
STARTCHAR 007C
ENCODING 124
SWIDTH 159 0
DWIDTH 7 0
BBX 5 44 1 -7
BITMAP
70
F8
F8
F8
F8
F8
F8
F8
F8
F8
F8
F8
F8
F8
F8
F8
F8
F8
F8
F8
F8
F8
F8
F8
F8
F8
F8
F8
F8
F8
F8
F8
F8
F8
F8
F8
F8
F8
F8
F8
F8
F8
F8
70
ENDCHAR
STARTCHAR 007D
ENCODING 125
SWIDTH 363 0
DWIDTH 16 0
BBX 14 31 1 0
BITMAP
7C00
7F00
FF80
7FC0
7FE0
07E0
03F0
01F0
01F0
01F0
01F0
01F0
01F0
01F8
01FC
01FC
01FC
01F8
01F0
01F0
01F0
01F0
01F0
01F0
03F0
07E0
7FE0
7FC0
FF80
FF00
7C00
ENDCHAR
STARTCHAR 007E
ENCODING 126
SWIDTH 454 0
DWIDTH 20 0
BBX 18 9 1 11
BITMAP
0F8380
3FC7C0
7FE7C0
7FE7C0
FFFFC0
FBFF80
F9FF80
F9FF00
707C00
ENDCHAR
STARTCHAR 00C6
ENCODING 198
SWIDTH 659 0
DWIDTH 29 0
BBX 27 31 1 0
BITMAP
03FFFFC0
0FFFFFE0
1FFFFFE0
3FFFFFE0
7FFFFFC0
7E1F0000
FC1F0000
F81F0000
F81F0000
F81F0000
F81F0000
F81F0000
F81F0000
FFFFFC00
FFFFFC00
7FFFFE00
FFFFFC00
FFFFF800
F81F0000
F81F0000
F81F0000
F81F0000
F81F0000
F81F0000
F81F0000
F81F0000
F81FFFC0
F81FFFE0
F81FFFE0
F80FFFE0
7007FFC0
ENDCHAR
STARTCHAR 00E6
ENCODING 230
SWIDTH 659 0
DWIDTH 29 0
BBX 27 18 1 0
BITMAP
07F1FE00
07FFFF00
0FFFFF80
07FFFFC0
07FFFFC0
003F87E0
001F03E0
1FFFFFE0
7FFFFFE0
7FFFFFC0
FFFFFFC0
FFFFFF00
F81F0000
FFFFF800
7FFFFC00
7FFFFE00
3FFFFC00
0FF9F800
ENDCHAR
STARTCHAR E000
ENCODING 57344
SWIDTH 0 0
DWIDTH 0 0
BBX 0 0 0 0
BITMAP
ENDCHAR
STARTCHAR E001
ENCODING 57345
SWIDTH 500 0
DWIDTH 22 0
BBX 0 0 0 0
BITMAP
ENDCHAR
ENDFONT
